<svg width="600" height="376" xmlns="http://www.w3.org/2000/svg" xmlns:xlink="http://www.w3.org/1999/xlink" xml:space="preserve" overflow="hidden"><defs><clipPath id="clip0"><rect x="180" y="154" width="600" height="376"/></clipPath></defs><g clip-path="url(#clip0)" transform="translate(-180 -154)"><text fill="#2E2925" font-family="Arial,Arial_MSFontService,sans-serif" font-style="italic" font-weight="400" font-size="55" transform="matrix(0.303337 0 0 0.303226 356.26 175)">Score on the USMLE </text><text fill="#2E2925" font-family="Arial,Arial_MSFontService,sans-serif" font-style="italic" font-weight="400" font-size="55" transform="matrix(0.303337 0 0 0.303226 517.613 175)">(</text><text fill="#2E2925" font-family="Arial,Arial_MSFontService,sans-serif" font-style="italic" font-weight="400" font-size="55" transform="matrix(0.303337 0 0 0.303226 523.168 175)">Step </text><text fill="#2E2925" font-family="Arial,Arial_MSFontService,sans-serif" font-style="italic" font-weight="400" font-size="55" transform="matrix(0.303337 0 0 0.303226 562.124 175)">3</text><text fill="#2E2925" font-family="Arial,Arial_MSFontService,sans-serif" font-style="italic" font-weight="400" font-size="55" transform="matrix(0.303337 0 0 0.303226 571.402 175)">)</text><path d="M659.668 243.945 659.668 482.632" stroke="#ADC0F0" stroke-width="2.77957" stroke-linejoin="round" stroke-miterlimit="10" fill="none" fill-rule="evenodd" transform="matrix(1.00037 0 0 1 -189.161 -43.7032)"/><path d="M537.771 471.365 608.341 471.365" stroke="#ADC0F0" stroke-width="1.04234" stroke-linejoin="round" stroke-miterlimit="10" fill="none" fill-rule="evenodd" transform="matrix(1.00037 0 0 1 -189.161 -43.7032)"/><path d="M537.771 250.616 608.341 250.616" stroke="#ADC0F0" stroke-width="1.04234" stroke-linejoin="round" stroke-miterlimit="10" fill="none" fill-rule="evenodd" transform="matrix(1.00037 0 0 1 -189.161 -43.7032)"/><path d="M537.771 305.803 608.341 305.803" stroke="#ADC0F0" stroke-width="1.04234" stroke-linejoin="round" stroke-miterlimit="10" fill="none" fill-rule="evenodd" transform="matrix(1.00037 0 0 1 -189.161 -43.7032)"/><path d="M537.771 360.99 608.341 360.99" stroke="#ADC0F0" stroke-width="1.04234" stroke-linejoin="round" stroke-miterlimit="10" fill="none" fill-rule="evenodd" transform="matrix(1.00037 0 0 1 -189.161 -43.7032)"/><path d="M537.771 416.177 608.341 416.177" stroke="#ADC0F0" stroke-width="1.04234" stroke-linejoin="round" stroke-miterlimit="10" fill="none" fill-rule="evenodd" transform="matrix(1.00037 0 0 1 -189.161 -43.7032)"/><path d="M555.055 256.663C555.055 253.156 557.899 250.313 561.404 250.313L584.789 250.313C588.294 250.313 591.139 253.156 591.139 256.663L591.139 465.015C591.139 468.52 588.294 471.365 584.789 471.365L561.404 471.365C557.899 471.365 555.055 468.52 555.055 465.015Z" fill="#E6EBE7" fill-rule="evenodd" transform="matrix(1.00037 0 0 1 -189.161 -43.7032)"/><path d="M577.645 506.994C575.307 506.994 573.4 508.901 573.4 511.239 573.4 513.577 575.307 515.484 577.645 515.484 579.983 515.484 581.89 513.577 581.89 511.239L581.89 511.239C581.89 508.901 579.983 506.994 577.645 506.994ZM579.492 512.161C579.737 512.406 579.737 512.776 579.492 513.022 579.246 513.27 578.876 513.27 578.631 513.022L577.645 512.1 576.66 513.022C576.414 513.27 576.044 513.27 575.799 513.022 575.553 512.776 575.553 512.406 575.799 512.161L576.723 511.239 575.799 510.317C575.553 510.068 575.492 509.701 575.738 509.456 575.984 509.207 576.353 509.146 576.599 509.392 576.599 509.392 576.66 509.456 576.66 509.456L577.645 510.378 578.631 509.456C578.876 509.207 579.246 509.146 579.492 509.392 579.737 509.638 579.798 510.008 579.552 510.253 579.552 510.253 579.492 510.317 579.492 510.317L578.506 511.239 579.492 512.161Z" fill="#F8C1C0" fill-rule="evenodd" transform="matrix(1.00037 0 0 1 -189.161 -43.7032)"/><path d="M571.763 490.619C562.108 490.619 554.297 498.3 554.297 507.873 554.297 517.446 562.047 525.187 571.702 525.187 581.357 525.187 589.168 517.506 589.168 507.934 589.168 507.934 589.168 507.934 589.168 507.873 589.168 498.361 581.357 490.619 571.763 490.619ZM571.456 514.58 562.047 514.58C561.677 514.58 561.432 514.335 561.432 513.971L561.432 500.495C561.432 499.825 561.984 499.276 562.66 499.276L566.596 499.276C566.72 499.276 566.844 499.337 566.966 499.398L569.058 501.105 579.819 501.105C580.741 501.105 581.481 501.836 581.481 502.691 581.481 502.691 581.481 502.691 581.481 502.691L581.481 504.947C581.481 505.314 581.235 505.556 580.865 505.556 580.495 505.556 580.25 505.314 580.25 504.947L580.25 502.691C580.25 502.448 580.065 502.324 579.819 502.324L568.873 502.324C568.749 502.324 568.564 502.263 568.503 502.203L566.414 500.495 562.66 500.495 562.66 513.358 571.456 513.358C571.823 513.358 572.072 513.604 572.072 513.971 572.072 514.335 571.823 514.58 571.456 514.58L571.456 514.58ZM577.791 516.53C574.777 516.53 572.318 514.092 572.318 511.105 572.318 508.115 574.777 505.678 577.791 505.678 580.805 505.678 583.264 508.115 583.264 511.105L583.264 511.105C583.264 514.092 580.805 516.469 577.791 516.53L577.791 516.53Z" fill="#ADC0F0" fill-rule="evenodd" transform="matrix(1.00037 0 0 1 -189.161 -43.7032)"/><path d="M639.806 459.69 684.684 459.69 684.684 484.858 639.806 484.858Z" fill="#F2F2F2" transform="matrix(1.00037 0 0 1 -189.161 -43.7032)"/><text fill="#2E2824" font-family="Arial,Arial_MSFontService,sans-serif" font-style="italic" font-weight="400" font-size="41" transform="matrix(0.303337 0 0 0.303226 464.199 433)">0</text><text fill="#2E2824" font-family="Arial,Arial_MSFontService,sans-serif" font-style="italic" font-weight="400" font-size="41" transform="matrix(0.303337 0 0 0.303226 471.116 433)">%</text><path d="M631.619 405.716 693.477 405.716 693.477 431.187 631.619 431.187Z" fill="#F2F2F2" transform="matrix(1.00037 0 0 1 -189.161 -43.7032)"/><text fill="#2E2824" font-family="Arial,Arial_MSFontService,sans-serif" font-style="italic" font-weight="400" font-size="41" transform="matrix(0.303337 0 0 0.303226 461.12 379)">25</text><text fill="#2E2824" font-family="Arial,Arial_MSFontService,sans-serif" font-style="italic" font-weight="400" font-size="41" transform="matrix(0.303337 0 0 0.303226 474.954 379)">%</text><path d="M631.619 347.194 693.477 347.194 693.477 372.361 631.619 372.361Z" fill="#F2F2F2" transform="matrix(1.00037 0 0 1 -189.161 -43.7032)"/><text fill="#2E2824" font-family="Arial,Arial_MSFontService,sans-serif" font-style="italic" font-weight="400" font-size="41" transform="matrix(0.303337 0 0 0.303226 461.12 320)">50</text><text fill="#2E2824" font-family="Arial,Arial_MSFontService,sans-serif" font-style="italic" font-weight="400" font-size="41" transform="matrix(0.303337 0 0 0.303226 474.954 320)">%</text><path d="M631.619 295.342 693.477 295.342 693.477 320.51 631.619 320.51Z" fill="#F2F2F2" transform="matrix(1.00037 0 0 1 -189.161 -43.7032)"/><text fill="#2E2824" font-family="Arial,Arial_MSFontService,sans-serif" font-style="italic" font-weight="400" font-size="41" transform="matrix(0.303337 0 0 0.303226 461.12 269)">75</text><text fill="#2E2824" font-family="Arial,Arial_MSFontService,sans-serif" font-style="italic" font-weight="400" font-size="41" transform="matrix(0.303337 0 0 0.303226 474.954 269)">%</text><path d="M625.858 241.368 695.6 241.368 695.6 266.535 625.858 266.535Z" fill="#F2F2F2" transform="matrix(1.00037 0 0 1 -189.161 -43.7032)"/><text fill="#2E2824" font-family="Arial,Arial_MSFontService,sans-serif" font-style="italic" font-weight="400" font-size="41" transform="matrix(0.303337 0 0 0.303226 455.724 215)">100</text><text fill="#2E2824" font-family="Arial,Arial_MSFontService,sans-serif" font-style="italic" font-weight="400" font-size="41" transform="matrix(0.303337 0 0 0.303226 476.474 215)">%</text><path d="M554.903 453.323 590.684 453.323 590.684 471.213 554.903 471.213Z" fill="#E6ECE7" transform="matrix(1.00037 0 0 1 -189.161 -43.7032)"/><path d="M559.603 349.71C559.603 346.06 562.563 343.1 566.214 343.1L579.98 343.1C583.631 343.1 586.59 346.06 586.59 349.71L586.59 462.025C586.59 465.676 583.631 468.635 579.98 468.635L566.214 468.635C562.563 468.635 559.603 465.676 559.603 462.025Z" fill="#ADC0F0" fill-rule="evenodd" transform="matrix(1.00037 0 0 1 -189.161 -43.7032)"/><path d="M614.639 482.432 704.09 482.432 704.09 512.755 614.639 512.755Z" fill="#F2F2F2" transform="matrix(1.00037 0 0 1 -189.161 -43.7032)"/><text fill="#2E2824" font-family="Arial,Arial_MSFontService,sans-serif" font-style="italic" font-weight="400" font-size="28" transform="matrix(0.303337 0 0 0.303226 451.435 452)">Percent of </text><text fill="#2E2824" font-family="Arial,Arial_MSFontService,sans-serif" font-style="italic" font-weight="400" font-size="28" transform="matrix(0.303337 0 0 0.303226 436.747 462)">Questions Correct</text><path d="M710.913 471.365 781.483 471.365" stroke="#ADC0F0" stroke-width="1.04234" stroke-linejoin="round" stroke-miterlimit="10" fill="none" fill-rule="evenodd" transform="matrix(1.00037 0 0 1 -189.161 -43.7032)"/><path d="M710.913 250.616 781.483 250.616" stroke="#ADC0F0" stroke-width="1.04234" stroke-linejoin="round" stroke-miterlimit="10" fill="none" fill-rule="evenodd" transform="matrix(1.00037 0 0 1 -189.161 -43.7032)"/><path d="M710.913 305.803 781.483 305.803" stroke="#ADC0F0" stroke-width="1.04234" stroke-linejoin="round" stroke-miterlimit="10" fill="none" fill-rule="evenodd" transform="matrix(1.00037 0 0 1 -189.161 -43.7032)"/><path d="M710.913 360.99 781.483 360.99" stroke="#ADC0F0" stroke-width="1.04234" stroke-linejoin="round" stroke-miterlimit="10" fill="none" fill-rule="evenodd" transform="matrix(1.00037 0 0 1 -189.161 -43.7032)"/><path d="M710.913 416.177 781.483 416.177" stroke="#ADC0F0" stroke-width="1.04234" stroke-linejoin="round" stroke-miterlimit="10" fill="none" fill-rule="evenodd" transform="matrix(1.00037 0 0 1 -189.161 -43.7032)"/><path d="M728.197 258.827C728.197 253.957 732.145 250.01 737.015 250.01L755.16 250.01C760.029 250.01 763.977 253.957 763.977 258.827L763.977 462.547C763.977 467.417 760.029 471.365 755.16 471.365L737.015 471.365C732.145 471.365 728.197 467.417 728.197 462.547Z" fill="#E6EBE7" fill-rule="evenodd" transform="matrix(1.00037 0 0 1 -189.161 -43.7032)"/><path d="M751.09 506.69C748.753 506.69 746.845 508.598 746.845 510.935 746.845 513.273 748.753 515.181 751.09 515.181 753.428 515.181 755.336 513.273 755.336 510.935 755.336 510.935 755.336 510.935 755.336 510.935 755.336 508.598 753.428 506.69 751.09 506.69ZM753.613 509.889 750.72 513.149C750.599 513.273 750.414 513.334 750.229 513.334L750.229 513.334C750.044 513.334 749.859 513.273 749.738 513.149L748.507 511.797C748.261 511.551 748.261 511.181 748.507 510.935 748.753 510.69 749.122 510.69 749.368 510.935 749.368 510.935 749.429 510.996 749.429 510.996L750.169 511.857 752.628 509.089C752.813 508.843 753.243 508.783 753.489 508.968 753.859 509.153 753.859 509.583 753.613 509.889 753.674 509.829 753.613 509.829 753.613 509.889L753.613 509.889Z" fill="#2E1449" fill-rule="evenodd" transform="matrix(1.00037 0 0 1 -189.161 -43.7032)"/><path d="M745.632 490.316C736.044 490.316 728.348 498.127 728.348 507.721 728.348 517.315 736.105 525.187 745.632 525.187 755.22 525.187 762.916 517.376 762.916 507.782 762.916 507.782 762.916 507.782 762.916 507.782 762.916 498.127 755.16 490.316 745.632 490.316 745.632 490.316 745.632 490.316 745.632 490.316ZM744.717 513.255C745.083 513.255 745.326 513.501 745.326 513.871 745.326 514.241 745.083 514.486 744.717 514.486L735.371 514.486C735.004 514.486 734.762 514.241 734.762 513.871L734.762 500.28C734.762 499.604 735.31 499.049 735.984 499.049L739.892 499.049C740.013 499.049 740.195 499.11 740.259 499.173L742.333 500.896 753.022 500.896C753.938 500.896 754.671 501.633 754.671 502.494L754.671 502.494 754.671 504.768C754.671 505.138 754.426 505.383 754.062 505.383 753.695 505.383 753.449 505.138 753.449 504.768L753.449 502.494C753.449 502.248 753.267 502.063 753.022 502.063L753.022 502.063 742.151 502.063C742.03 502.063 741.906 502.002 741.784 501.939L739.707 500.216 735.984 500.216 735.984 513.195 744.717 513.255ZM751.069 516.454C748.076 516.454 745.632 513.995 745.632 510.981 745.632 507.967 748.076 505.508 751.069 505.508 754.062 505.508 756.503 507.967 756.503 510.981 756.442 513.995 754.062 516.454 751.069 516.454L751.069 516.454Z" fill="#FF8000" fill-rule="evenodd" transform="matrix(1.00037 0 0 1 -189.161 -43.7032)"/><path d="M728.197 453.474 763.674 453.474 763.674 471.364 728.197 471.364Z" stroke="#D2D6D8" stroke-width="1.04234" stroke-linejoin="round" stroke-miterlimit="10" fill="#E6ECE7" transform="matrix(1.00037 0 0 1 -189.161 -43.7032)"/><path d="M731.836 315.546C731.836 311.337 735.247 307.926 739.456 307.926L752.722 307.926C756.927 307.926 760.339 311.337 760.339 315.546L760.339 461.015C760.339 465.224 756.927 468.635 752.722 468.635L739.456 468.635C735.247 468.635 731.836 465.224 731.836 461.015Z" fill="#FF8000" fill-rule="evenodd" transform="matrix(1.00037 0 0 1 -189.161 -43.7032)"/><path d="M688.323 530.948 802.942 530.948 802.942 571.277 688.323 571.277Z" fill="#F2F2F2" transform="matrix(1.00037 0 0 1 -189.161 -43.7032)"/><text fill="#2E2824" font-family="Arial,Arial_MSFontService,sans-serif" font-weight="700" font-size="41" transform="matrix(0.303337 0 0 0.303226 540.78 504)">WITH </text><text fill="#2E2824" font-family="Arial,Arial_MSFontService,sans-serif" font-weight="700" font-size="41" transform="matrix(0.303337 0 0 0.303226 510.543 519)">Structured data</text><path d="M513.058 530.948 627.374 530.948 627.374 571.277 513.058 571.277Z" fill="#F2F2F2" transform="matrix(1.00037 0 0 1 -189.161 -43.7032)"/><text fill="#2E2824" font-family="Arial,Arial_MSFontService,sans-serif" font-weight="700" font-size="41" transform="matrix(0.303337 0 0 0.303226 351.998 504)">WITHOUT </text><text fill="#2E2824" font-family="Arial,Arial_MSFontService,sans-serif" font-weight="700" font-size="41" transform="matrix(0.303337 0 0 0.303226 334.969 519)">Structured data</text><path d="M530.215 300.901 572.378 407.463 457.222 414.777Z" fill="#CED9F6" fill-rule="evenodd" fill-opacity="0.701961" transform="matrix(1.00037 0 0 1 -189.161 -43.7032)"/><path d="M386.643 284.748C411.899 245.349 464.308 233.884 503.71 259.138 543.108 284.392 554.573 336.805 529.317 376.203 504.064 415.601 451.652 427.066 412.254 401.814 372.856 376.558 361.388 324.145 386.643 284.748Z" fill="#ADC0F0" fill-rule="evenodd" transform="matrix(1.00037 0 0 1 -189.161 -43.7032)"/><path d="M390.74 287.375C414.546 250.239 463.945 239.432 501.081 263.236 538.217 287.04 549.024 336.441 525.22 373.577 501.417 410.71 452.016 421.52 414.88 397.714 377.744 373.911 366.937 324.509 390.74 287.375Z" fill="#FFFFFF" fill-rule="evenodd" transform="matrix(1.00037 0 0 1 -189.161 -43.7032)"/><text fill="#ADC0F0" font-family="Arial Black,Arial Black_MSFontService,sans-serif" font-weight="900" font-size="165" transform="matrix(0.303337 0 0 0.303226 218.044 318)">59</text><text fill="#ADC0F0" font-family="Arial Black,Arial Black_MSFontService,sans-serif" font-weight="900" font-size="165" transform="matrix(0.303337 0 0 0.303226 284.811 318)">%</text><text fill="#F8C1C0" font-family="Calibri,Calibri_MSFontService,sans-serif" font-style="italic" font-weight="400" font-size="110" transform="matrix(0.303337 0 0 0.303226 240.534 272)">FAIL</text><path d="M0 93.0104 66.9639 0 135.273 93.0104Z" fill="#FFCC99" fill-rule="evenodd" fill-opacity="0.701961" transform="matrix(0.474268 0.88038 0.880702 -0.474095 527.139 253.524)"/><path d="M0 84.7419C-1.07888e-14 37.9403 37.9403-1.07888e-14 84.7419-2.15776e-14 131.544-4.3155e-14 169.484 37.9403 169.484 84.7419 169.484 131.544 131.544 169.484 84.7419 169.484 37.9403 169.484-5.39441e-14 131.544 0 84.7419Z" fill="#FF8000" fill-rule="evenodd" transform="matrix(-0.880702 0.474095 0.474268 0.88038 713.296 129.624)"/><path d="M0 79.8741C-1.01691e-14 35.7608 35.7608-1.01691e-14 79.8741-2.03381e-14 123.987-4.06762e-14 159.749 35.7608 159.749 79.8741 159.749 123.987 123.987 159.749 79.8741 159.749 35.7608 159.749-5.08452e-14 123.987 0 79.8741Z" fill="#FFFFFF" fill-rule="evenodd" transform="matrix(-0.880702 0.474095 0.474268 0.88038 711.318 136.217)"/><text fill="#FF8000" font-family="Arial Black,Arial Black_MSFontService,sans-serif" font-weight="900" font-size="165" transform="matrix(0.303337 0 0 0.303226 625.362 273)">74</text><text fill="#FF8000" font-family="Arial Black,Arial Black_MSFontService,sans-serif" font-weight="900" font-size="165" transform="matrix(0.303337 0 0 0.303226 692.129 273)">%</text><text fill="#2E1449" font-family="Calibri,Calibri_MSFontService,sans-serif" font-style="italic" font-weight="400" font-size="110" transform="matrix(0.303337 0 0 0.303226 644.023 228)">PASS</text><path d="M0 0 166.83 33.8506" stroke="#2E1449" stroke-width="2.77957" stroke-linejoin="round" stroke-miterlimit="10" fill="none" fill-rule="evenodd" transform="matrix(-1.00037 0 0 1 551.187 265.132)"/><path d="M0 7.58062 7.42906 0 14.8581 7.58062 7.42906 15.1612Z" fill="#2E1449" fill-rule="evenodd" transform="matrix(-1.00037 0 0 1 565.844 257.4)"/><path d="M0 7.42906 7.58068 0 15.1614 7.42906 7.58068 14.8581Z" fill="#2E1449" fill-rule="evenodd" transform="matrix(-1.00037 0 0 1 391.729 293.181)"/></g></svg>