<svg width="4166" height="1845" xmlns="http://www.w3.org/2000/svg" xmlns:xlink="http://www.w3.org/1999/xlink" xml:space="preserve" overflow="hidden"><defs><clipPath id="clip0"><rect x="128" y="560" width="4166" height="1845"/></clipPath></defs><g clip-path="url(#clip0)" transform="translate(-128 -560)"><rect x="181" y="560" width="1863" height="291" fill="#007CBA"/><text fill="#FFFFFF" font-family="Arial Black,Arial Black_MSFontService,sans-serif" font-weight="900" font-size="92" transform="matrix(1 0 0 1 309.891 736)">Challenge 1:</text><text fill="#007CBA" font-family="Arial,Arial_MSFontService,sans-serif" font-style="italic" font-weight="700" font-size="64" transform="matrix(1 0 0 1 205.193 2060)">Two organizations can say the same thing, but in a different </text><text fill="#007CBA" font-family="Arial,Arial_MSFontService,sans-serif" font-style="italic" font-weight="700" font-size="64" transform="matrix(1 0 0 1 329.309 2137)">order. A human can tell that these are the same, but </text><text fill="#007CBA" font-family="Arial,Arial_MSFontService,sans-serif" font-style="italic" font-weight="700" font-size="64" transform="matrix(1 0 0 1 630.87 2214)">computers have great difficulty.</text><text fill="#2E2925" font-family="Arial,Arial_MSFontService,sans-serif" font-style="italic" font-weight="700" font-size="46" transform="matrix(1 0 0 1 1013.94 1073)">HL7 V2*:</text><text fill="#2E2925" font-family="Arial,Arial_MSFontService,sans-serif" font-style="italic" font-weight="700" font-size="46" transform="matrix(1 0 0 1 1035.71 1393)">CCDA*:</text><text fill="#2E2925" font-family="Arial,Arial_MSFontService,sans-serif" font-style="italic" font-weight="700" font-size="46" transform="matrix(1 0 0 1 1071.8 1766)">EHR*:</text><text fill="#2E2925" font-family="Arial Black,Arial Black_MSFontService,sans-serif" font-weight="900" font-size="110" transform="matrix(1 0 0 1 194.741 1271)">Systolic </text><text fill="#2E2925" font-family="Arial Black,Arial Black_MSFontService,sans-serif" font-weight="900" font-size="110" transform="matrix(1 0 0 1 194.741 1403)">Blood </text><text fill="#2E2925" font-family="Arial Black,Arial Black_MSFontService,sans-serif" font-weight="900" font-size="110" transform="matrix(1 0 0 1 194.741 1535)">Pressure:</text><text fill="#FFFFFF" font-family="Arial,Arial_MSFontService,sans-serif" font-style="italic" font-weight="700" font-size="73" transform="matrix(1 0 0 1 1075.42 687)">Difficulty in defining </text><text fill="#FFFFFF" font-family="Arial,Arial_MSFontService,sans-serif" font-style="italic" font-weight="700" font-size="73" transform="matrix(1 0 0 1 1075.42 775)">consistent STRUCTURE</text><rect x="1262" y="939" width="781" height="105" fill="#ECECED"/><text fill="#2E2925" font-family="Arial,Arial_MSFontService,sans-serif" font-weight="700" font-size="55" transform="matrix(1 0 0 1 1294.63 1011)">FIELD 1: </text><text fill="#2E2925" font-family="Arial,Arial_MSFontService,sans-serif" font-weight="400" font-size="55" transform="matrix(1 0 0 1 1533.53 1011)">Left</text><rect x="1262" y="1056" width="781" height="105" fill="#ECECED"/><text fill="#2E2925" font-family="Arial,Arial_MSFontService,sans-serif" font-weight="700" font-size="55" transform="matrix(1 0 0 1 1294.63 1128)">FIELD 2: </text><text fill="#2E2925" font-family="Arial,Arial_MSFontService,sans-serif" font-weight="400" font-size="55" transform="matrix(1 0 0 1 1533.53 1128)">Brachial Artery</text><rect x="1262" y="1314" width="781" height="106" fill="#ECECED"/><text fill="#2E2925" font-family="Arial,Arial_MSFontService,sans-serif" font-weight="700" font-size="55" transform="matrix(1 0 0 1 1294.63 1387)">FIELD 1: </text><text fill="#2E2925" font-family="Arial,Arial_MSFontService,sans-serif" font-weight="400" font-size="55" transform="matrix(1 0 0 1 1533.53 1387)">Left Brachial Artery</text><rect x="1262" y="1568" width="781" height="105" fill="#ECECED"/><text fill="#2E2925" font-family="Arial,Arial_MSFontService,sans-serif" font-weight="700" font-size="55" transform="matrix(1 0 0 1 1294.63 1640)">FIELD 1: </text><text fill="#2E2925" font-family="Arial,Arial_MSFontService,sans-serif" font-weight="400" font-size="55" transform="matrix(1 0 0 1 1533.53 1640)">Left</text><rect x="1262" y="1684" width="781" height="105" fill="#ECECED"/><text fill="#2E2925" font-family="Arial,Arial_MSFontService,sans-serif" font-weight="700" font-size="55" transform="matrix(1 0 0 1 1294.63 1757)">FIELD 2: </text><text fill="#2E2925" font-family="Arial,Arial_MSFontService,sans-serif" font-weight="400" font-size="55" transform="matrix(1 0 0 1 1533.53 1757)">Brachial</text><rect x="1262" y="1799" width="781" height="105" fill="#ECECED"/><text fill="#2E2925" font-family="Arial,Arial_MSFontService,sans-serif" font-weight="700" font-size="55" transform="matrix(1 0 0 1 1294.63 1872)">FIELD 3: </text><text fill="#2E2925" font-family="Arial,Arial_MSFontService,sans-serif" font-weight="400" font-size="55" transform="matrix(1 0 0 1 1533.53 1872)">Artery</text><path d="M2152.5 560.5 2152.5 2253.06" stroke="#C6C6C8" stroke-width="9.16667" stroke-linejoin="round" stroke-miterlimit="10" fill="none" fill-rule="evenodd"/><path d="M0 0 176.26 0 261 180 84.7402 180Z" fill="#A0A0A3" fill-rule="evenodd" transform="matrix(-1 0 0 1 3984 1136)"/><path d="M0 0 87.1168 0 129 89 41.8831 89Z" fill="#77777B" fill-rule="evenodd" transform="matrix(-1 0 0 1 3835 1233)"/><path d="M3643.21 1710.64C3619.94 1738.05 3577.34 1741.69 3548.71 1719.41 3520.09 1697.12 3516.27 1656.32 3540.32 1628.92 3563.59 1601.51 3606.19 1597.86 3634.82 1620.15 3663.44 1643.18 3667.25 1683.97 3643.21 1710.64ZM3657.31 1593.48C3613.22 1559.3 3548.93 1565.15 3512.47 1606.63 3476.01 1648.85 3482.12 1711.15 3526.21 1746.07 3569.54 1780.99 3634.6 1775.15 3671.06 1732.93 3707.52 1690.7 3701.41 1628.4 3657.31 1593.48Z" fill="#3DBEFF" fill-rule="evenodd"/><path d="M3634.15 1620.49C3662.72 1643.48 3666.53 1684.19 3642.53 1710.8 3619.3 1738.15 3576.79 1741.8 3548.22 1719.55 3519.65 1697.31 3515.84 1656.6 3539.84 1629.24 3563.07 1601.89 3605.59 1598.25 3634.15 1620.49Z" fill="#007CBA" fill-rule="evenodd"/><path d="M3597.17 1670.34 3590.31 1649.79 3582.63 1670.32ZM3585.73 1638.77 3594.92 1638.79 3614.75 1690.18 3604.8 1690.17 3599.46 1677.68 3581.09 1677.66 3575.71 1690.12 3565 1690.11Z" fill="#FFFFFF" fill-rule="evenodd"/><path d="M3232.25 1330 3133 1384.99 3133 1494.49 3232.25 1549 3331 1494.49 3331 1384.99Z" fill="#222C67" fill-rule="evenodd"/><path d="M3222.88 1444.91C3214.95 1437.87 3214.95 1425.66 3222.88 1418.15 3230.31 1410.63 3243.7 1410.63 3251.13 1418.15 3259.06 1425.66 3259.06 1437.87 3251.13 1444.91 3243.7 1452.43 3230.31 1452.43 3222.88 1444.91ZM3257.08 1412.51C3246.17 1402.65 3228.33 1402.65 3216.93 1412.51 3206.52 1422.84 3206.52 1440.22 3216.93 1450.55 3228.33 1461.35 3246.17 1461.35 3257.08 1450.55 3268.48 1440.22 3268.48 1422.84 3257.08 1412.51Z" fill="#FFFFFF" fill-rule="evenodd"/><path d="M3194.5 1472.59 3193.5 1472.12C3191.5 1469.78 3191.5 1466.5 3193.5 1464.62L3213.5 1445.88C3216 1443.53 3219.5 1443.53 3221.5 1445.88L3222.5 1446.34C3224.5 1448.22 3224.5 1451.97 3222.5 1453.84L3202.5 1472.59C3200 1474.47 3196.5 1474.47 3194.5 1472.59Z" fill="#FFFFFF" fill-rule="evenodd"/><path d="M3356.91 1172 3475.09 1172C3500.68 1172 3521 1151.8 3521 1127.27L3521 1014.01C3521 990.2 3500.68 970 3475.09 970L3356.91 970C3331.32 970 3311 990.2 3311 1014.01L3311 1127.27C3311 1151.8 3331.32 1172 3356.91 1172Z" fill="#E5B611" fill-rule="evenodd"/><path d="M3986 1585 3986 1431 4058 1566.84 3986 1585 3986 1585Z" fill="#2E2824" fill-rule="evenodd" fill-opacity="0.8"/><path d="M3986 1585 3986 1431 3914 1566.84 3986 1585 3986 1585Z" fill="#6A5C53" fill-rule="evenodd"/><text fill="#2E2925" font-family="Arial,Arial_MSFontService,sans-serif" font-style="italic" font-weight="400" font-size="37" transform="matrix(1 0 0 1 2590.08 2374)">*Notional and demonstrative, not reflective of the real data structures or representations</text><rect x="2266" y="560" width="1864" height="291" fill="#222C67"/><text fill="#FFFFFF" font-family="Arial Black,Arial Black_MSFontService,sans-serif" font-weight="900" font-size="92" transform="matrix(1 0 0 1 2395.31 736)">Challenge 2:</text><text fill="#FFFFFF" font-family="Arial,Arial_MSFontService,sans-serif" font-style="italic" font-weight="700" font-size="73" transform="matrix(1 0 0 1 3144.31 687)">Difficulty in deriving </text><text fill="#FFFFFF" font-family="Arial,Arial_MSFontService,sans-serif" font-style="italic" font-weight="700" font-size="73" transform="matrix(1 0 0 1 3144.31 775)">consistent MEANING</text><text fill="#2E2925" font-family="Arial,Arial_MSFontService,sans-serif" font-style="italic" font-weight="700" font-size="46" transform="matrix(1 0 0 1 3552.29 1393)">EHR Vendor/LIS Local</text><text fill="#2E2925" font-family="Arial,Arial_MSFontService,sans-serif" font-style="italic" font-weight="400" font-size="46" transform="matrix(1 0 0 1 3696.37 1448)">7564857*</text><text fill="#FFFFFF" font-family="Arial,Arial_MSFontService,sans-serif" font-weight="700" font-size="55" transform="matrix(1 0 0 1 3853.62 1238)">I.</text><text fill="#2E2925" font-family="Arial,Arial_MSFontService,sans-serif" font-style="italic" font-weight="700" font-size="46" transform="matrix(1 0 0 1 3386.55 1847)">Test Order Catalog </text><text fill="#2E2925" font-family="Arial,Arial_MSFontService,sans-serif" font-style="italic" font-weight="400" font-size="46" transform="matrix(1 0 0 1 3456.45 1902)">47</text><text fill="#2E2925" font-family="Arial,Arial_MSFontService,sans-serif" font-style="italic" font-weight="400" font-size="46" transform="matrix(1 0 0 1 3506.87 1902)">-</text><text fill="#2E2925" font-family="Arial,Arial_MSFontService,sans-serif" font-style="italic" font-weight="400" font-size="46" transform="matrix(1 0 0 1 3522.34 1902)">25</text><text fill="#2E2925" font-family="Arial,Arial_MSFontService,sans-serif" font-style="italic" font-weight="400" font-size="46" transform="matrix(1 0 0 1 3572.75 1902)">-</text><text fill="#2E2925" font-family="Arial,Arial_MSFontService,sans-serif" font-style="italic" font-weight="400" font-size="46" transform="matrix(1 0 0 1 3588.22 1902)">34</text><text fill="#2E2925" font-family="Arial,Arial_MSFontService,sans-serif" font-style="italic" font-weight="400" font-size="46" transform="matrix(1 0 0 1 3638.64 1902)">-</text><text fill="#2E2925" font-family="Arial,Arial_MSFontService,sans-serif" font-style="italic" font-weight="400" font-size="46" transform="matrix(1 0 0 1 3654.11 1902)">TT*</text><text fill="#2E2925" font-family="Arial,Arial_MSFontService,sans-serif" font-style="italic" font-weight="700" font-size="46" transform="matrix(1 0 0 1 3150.2 1611)">LOINC</text><text font-family="Arial,Arial_MSFontService,sans-serif" font-style="italic" font-weight="400" font-size="31" transform="matrix(1 0 0 1 3292.85 1597)">®</text><text fill="#2E2925" font-family="Arial,Arial_MSFontService,sans-serif" font-style="italic" font-weight="400" font-size="46" transform="matrix(1 0 0 1 3168.23 1666)">8480</text><text fill="#2E2925" font-family="Arial,Arial_MSFontService,sans-serif" font-style="italic" font-weight="400" font-size="46" transform="matrix(1 0 0 1 3269.07 1666)">-</text><text fill="#2E2925" font-family="Arial,Arial_MSFontService,sans-serif" font-style="italic" font-weight="400" font-size="46" transform="matrix(1 0 0 1 3284.53 1666)">6</text><path d="M3356.21 988.881C3341.86 988.881 3330.53 1000.41 3330.53 1014.09L3330.53 1127.19C3330.53 1140.87 3341.86 1152.4 3356.21 1152.4L3474.79 1152.4C3489.14 1152.4 3500.47 1140.87 3500.47 1127.19L3500.47 1014.09C3500.47 1000.41 3489.14 988.881 3474.79 988.881ZM3474.79 1156 3356.21 1156C3339.6 1156 3326 1143.03 3326 1127.19L3326 1014.09C3326 998.966 3339.6 986 3356.21 986L3474.79 986C3491.41 986 3505 998.966 3505 1014.09L3505 1127.19C3505 1143.03 3491.41 1156 3474.79 1156Z" fill="#FFFFFF" fill-rule="evenodd"/><text fill="#FFFFFF" font-family="Arial,Arial_MSFontService,sans-serif" font-weight="700" font-size="73" transform="matrix(1 0 0 1 3382.48 1098)">09</text><text fill="#2E2925" font-family="Arial,Arial_MSFontService,sans-serif" font-style="italic" font-weight="700" font-size="46" transform="matrix(1 0 0 1 3285.25 1235)">SNOMED CT</text><text fill="#2E2925" font-family="Arial,Arial_MSFontService,sans-serif" font-style="italic" font-weight="400" font-size="46" transform="matrix(1 0 0 1 3309.31 1290)">271649006</text><text fill="#2E2925" font-family="Arial,Arial_MSFontService,sans-serif" font-style="italic" font-weight="700" font-size="46" transform="matrix(1 0 0 1 3901.75 1644)">Other…</text><text fill="#2E2925" font-family="Arial,Arial_MSFontService,sans-serif" font-style="italic" font-weight="400" font-size="46" transform="matrix(1 0 0 1 3896.02 1699)">AA44b5*</text><text fill="#222C67" font-family="Arial,Arial_MSFontService,sans-serif" font-style="italic" font-weight="700" font-size="64" transform="matrix(1 0 0 1 2295.17 2060)">Two organizations can say the same thing using different </text><text fill="#222C67" font-family="Arial,Arial_MSFontService,sans-serif" font-style="italic" font-weight="700" font-size="64" transform="matrix(1 0 0 1 2269.32 2137)">“words”. There is then a need for manual translations from </text><text fill="#222C67" font-family="Arial,Arial_MSFontService,sans-serif" font-style="italic" font-weight="700" font-size="64" transform="matrix(1 0 0 1 2838.23 2214)">standard to standard.</text><text fill="#2E2925" font-family="Arial Black,Arial Black_MSFontService,sans-serif" font-weight="900" font-size="110" transform="matrix(1 0 0 1 2281.66 1290)">Systolic </text><text fill="#2E2925" font-family="Arial Black,Arial Black_MSFontService,sans-serif" font-weight="900" font-size="110" transform="matrix(1 0 0 1 2281.66 1422)">Blood </text><text fill="#2E2925" font-family="Arial Black,Arial Black_MSFontService,sans-serif" font-weight="900" font-size="110" transform="matrix(1 0 0 1 2281.66 1554)">Pressure:</text></g></svg>