<svg width="3756" height="1698" xmlns="http://www.w3.org/2000/svg" xmlns:xlink="http://www.w3.org/1999/xlink" xml:space="preserve" overflow="hidden"><defs><filter id="fx0" x="-10%" y="-10%" width="120%" height="120%" filterUnits="userSpaceOnUse" primitiveUnits="userSpaceOnUse"><feComponentTransfer color-interpolation-filters="sRGB"><feFuncR type="discrete" tableValues="0 0"/><feFuncG type="discrete" tableValues="0 0"/><feFuncB type="discrete" tableValues="0 0"/><feFuncA type="linear" slope="0.34902" intercept="0"/></feComponentTransfer><feGaussianBlur stdDeviation="4.8119 4.8119"/></filter><filter id="fx1" x="-10%" y="-10%" width="120%" height="120%" filterUnits="userSpaceOnUse" primitiveUnits="userSpaceOnUse"><feComponentTransfer color-interpolation-filters="sRGB"><feFuncR type="discrete" tableValues="0 0"/><feFuncG type="discrete" tableValues="0 0"/><feFuncB type="discrete" tableValues="0 0"/><feFuncA type="linear" slope="0.34902" intercept="0"/></feComponentTransfer><feGaussianBlur stdDeviation="4.8119 4.8119"/></filter><clipPath id="clip2"><path d="M2756.5 1414.5 2756.5 1657.5 3038.5 1657.5 3038.5 1414.5ZM467 404 4223 404 4223 2102 467 2102Z" fill-rule="evenodd" clip-rule="evenodd"/></clipPath><clipPath id="clip3"><path d="M3534.5 930.5 3534.5 1173.5 3815.5 1173.5 3815.5 930.5ZM467 404 4223 404 4223 2102 467 2102Z" fill-rule="evenodd" clip-rule="evenodd"/></clipPath></defs><g transform="translate(-467 -404)"><rect x="2827.5" y="1408.5" width="575" height="481" stroke="#007BBA" stroke-width="3.4375" stroke-linejoin="round" stroke-miterlimit="10" fill="#BEE9FF"/><rect x="2854" y="1804.9" width="417.097" height="65.097" fill="#2E2925"/><path d="M3271.1 1804.9 3383 1693 3383 1758.1 3271.1 1870Z" fill="#25211E" fill-rule="evenodd"/><path d="M2854 1804.9 2965.9 1693 3383 1693 3271.1 1804.9Z" fill="#575350" fill-rule="evenodd"/><rect x="2854" y="1738.27" width="417.729" height="64.7296" fill="#222C67"/><path d="M3271.73 1738.27 3383 1627 3383 1691.73 3271.73 1803Z" fill="#1B2353" fill-rule="evenodd"/><path d="M2854 1738.27 2965.27 1627 3383 1627 3271.73 1738.27Z" fill="#4D5585" fill-rule="evenodd"/><rect x="2854" y="1670.9" width="417.097" height="65.097" fill="#003E5D"/><path d="M3271.1 1670.9 3383 1559 3383 1624.1 3271.1 1736Z" fill="#00324B" fill-rule="evenodd"/><path d="M2854 1670.9 2965.9 1559 3383 1559 3271.1 1670.9Z" fill="#32647D" fill-rule="evenodd"/><rect x="2853" y="1612.9" width="417.098" height="65.097" fill="#007CBA"/><path d="M3270.1 1612.9 3382 1501 3382 1566.1 3270.1 1678Z" fill="#006496" fill-rule="evenodd"/><path d="M2853 1612.9 2964.9 1501 3382 1501 3270.1 1612.9Z" fill="#3296C8" fill-rule="evenodd"/><rect x="2853" y="1546.27" width="417.729" height="64.7299" fill="#E5B611"/><path d="M3270.73 1546.27 3382 1435 3382 1499.73 3270.73 1611Z" fill="#B8920E" fill-rule="evenodd"/><path d="M2853 1546.27 2964.27 1435 3382 1435 3270.73 1546.27Z" fill="#EAC440" fill-rule="evenodd"/><rect x="2747.5" y="1333.5" width="575" height="481" stroke="#007BBA" stroke-width="3.4375" stroke-linejoin="round" stroke-miterlimit="10" fill="#BEE9FF"/><rect x="2774" y="1729.9" width="417.098" height="65.0972" fill="#2E2925"/><path d="M3191.1 1729.9 3303 1618 3303 1683.1 3191.1 1795Z" fill="#25211E" fill-rule="evenodd"/><path d="M2774 1729.9 2885.9 1618 3303 1618 3191.1 1729.9Z" fill="#575350" fill-rule="evenodd"/><rect x="2774" y="1663.27" width="417.729" height="64.7299" fill="#222C67"/><path d="M3191.73 1663.27 3303 1552 3303 1616.73 3191.73 1728Z" fill="#1B2353" fill-rule="evenodd"/><path d="M2774 1663.27 2885.27 1552 3303 1552 3191.73 1663.27Z" fill="#4D5585" fill-rule="evenodd"/><rect x="2774" y="1595.9" width="417.098" height="65.0972" fill="#003E5D"/><path d="M3191.1 1595.9 3303 1484 3303 1549.1 3191.1 1661Z" fill="#00324B" fill-rule="evenodd"/><path d="M2774 1595.9 2885.9 1484 3303 1484 3191.1 1595.9Z" fill="#32647D" fill-rule="evenodd"/><rect x="2774" y="1537.9" width="417.098" height="65.097" fill="#007CBA"/><path d="M3191.1 1537.9 3303 1426 3303 1491.1 3191.1 1603Z" fill="#006496" fill-rule="evenodd"/><path d="M2774 1537.9 2885.9 1426 3303 1426 3191.1 1537.9Z" fill="#3296C8" fill-rule="evenodd"/><rect x="2773" y="1471.9" width="417.098" height="65.097" fill="#E5B611"/><path d="M3190.1 1471.9 3302 1360 3302 1425.1 3190.1 1537Z" fill="#B8920E" fill-rule="evenodd"/><path d="M2773 1471.9 2884.9 1360 3302 1360 3190.1 1471.9Z" fill="#EAC440" fill-rule="evenodd"/><path d="M1261.5 936.5 1687.85 936.5" stroke="#E5B611" stroke-width="3.4375" stroke-linejoin="round" stroke-miterlimit="10" fill="none" fill-rule="evenodd"/><path d="M1261.5 1193.5 1687.85 1193.5" stroke="#007CBA" stroke-width="3.4375" stroke-linejoin="round" stroke-miterlimit="10" fill="none" fill-rule="evenodd"/><path d="M1063.5 1442.5 1687.85 1442.5" stroke="#222C67" stroke-width="3.4375" stroke-linejoin="round" stroke-miterlimit="10" fill="none" fill-rule="evenodd"/><path d="M1297.5 1701.5 1687.55 1701.5" stroke="#003E5D" stroke-width="3.4375" stroke-linejoin="round" stroke-miterlimit="10" fill="none" fill-rule="evenodd"/><path d="M1363.5 1955.5 1687.55 1955.5" stroke="#111634" stroke-width="3.4375" stroke-linejoin="round" stroke-miterlimit="10" fill="none" fill-rule="evenodd"/><text fill="#003E5D" font-family="Arial,Arial_MSFontService,sans-serif" font-weight="700" font-size="64" transform="matrix(1 0 0 1 517.105 1720)">Terminology Knowledge</text><text fill="#111634" font-family="Arial,Arial_MSFontService,sans-serif" font-weight="700" font-size="64" transform="matrix(1 0 0 1 517.105 1975)">Foundational Architecture</text><text fill="#2E2824" font-family="Arial,Arial_MSFontService,sans-serif" font-weight="700" font-size="64" transform="matrix(1 0 0 1 517.105 1465)">Statement Model </text><text fill="#006496" font-family="Arial,Arial_MSFontService,sans-serif" font-weight="700" font-size="64" transform="matrix(1 0 0 1 517.105 1215)">Assertional Knowledge</text><text fill="#E5B611" font-family="Arial,Arial_MSFontService,sans-serif" font-weight="700" font-size="64" transform="matrix(1 0 0 1 517.105 966)">Procedural Knowledge</text><rect x="1568" y="1894.21" width="560.794" height="118.793" fill="#2E2925"/><path d="M2128.79 1894.21 2333 1690 2333 1808.79 2128.79 2013Z" fill="#25211E" fill-rule="evenodd"/><path d="M1568 1894.21 1772.21 1690 2333 1690 2128.79 1894.21Z" fill="#575350" fill-rule="evenodd"/><text fill="#FFFFFF" font-family="Arial,Arial_MSFontService,sans-serif" font-weight="700" font-size="92" transform="matrix(1 0 0 1 1844.61 1988)">F</text><rect x="1577" y="1639.21" width="560.793" height="118.794" fill="#222C67"/><path d="M2137.79 1639.21 2342 1435 2342 1553.79 2137.79 1758Z" fill="#1B2353" fill-rule="evenodd"/><path d="M1577 1639.21 1781.21 1435 2342 1435 2137.79 1639.21Z" fill="#4D5585" fill-rule="evenodd"/><text fill="#FFFFFF" font-family="Arial,Arial_MSFontService,sans-serif" font-weight="700" font-size="92" transform="matrix(1 0 0 1 1844.61 1735)">T</text><rect x="1577" y="1381.21" width="560.793" height="118.793" fill="#003E5D"/><path d="M2137.79 1381.21 2342 1177 2342 1295.79 2137.79 1500Z" fill="#00324B" fill-rule="evenodd"/><path d="M1577 1381.21 1781.21 1177 2342 1177 2137.79 1381.21Z" fill="#32647D" fill-rule="evenodd"/><text fill="#FFFFFF" font-family="Arial,Arial_MSFontService,sans-serif" font-weight="700" font-size="92" transform="matrix(1 0 0 1 1842.03 1480)">S</text><rect x="1577" y="1131.21" width="560.793" height="118.794" fill="#007CBA"/><path d="M2137.79 1131.21 2342 927 2342 1045.79 2137.79 1250Z" fill="#006496" fill-rule="evenodd"/><path d="M1577 1131.21 1781.21 927 2342 927 2137.79 1131.21Z" fill="#3296C8" fill-rule="evenodd"/><text fill="#FFFFFF" font-family="Arial,Arial_MSFontService,sans-serif" font-weight="700" font-size="92" transform="matrix(1 0 0 1 1839.45 1221)">A</text><rect x="1568" y="875.207" width="560.794" height="118.793" fill="#E5B611"/><path d="M2128.79 875.207 2333 671 2333 789.793 2128.79 994Z" fill="#B8920E" fill-rule="evenodd"/><path d="M1568 875.207 1772.21 671 2333 671 2128.79 875.207Z" fill="#EAC440" fill-rule="evenodd"/><text fill="#FFFFFF" font-family="Arial,Arial_MSFontService,sans-serif" font-weight="700" font-size="92" transform="matrix(1 0 0 1 1842.03 972)">P</text><path d="M2492.5 671.5C2512.93 671.5 2529.5 674.26 2529.5 677.666L2529.5 1251.38C2529.5 1254.79 2546.07 1257.55 2566.5 1257.55 2546.07 1257.55 2529.5 1260.31 2529.5 1263.71L2529.5 2002.33C2529.5 2005.74 2512.93 2008.5 2492.5 2008.5" stroke="#A0A0A3" stroke-width="9.16667" stroke-linejoin="round" stroke-miterlimit="10" fill="none" fill-rule="evenodd"/><rect x="2667.5" y="1246.5" width="575" height="481" stroke="#007BBA" stroke-width="3.4375" stroke-linejoin="round" stroke-miterlimit="10" fill="#BEE9FF"/><rect x="2694" y="1642.9" width="417.098" height="65.097" fill="#2E2925"/><path d="M3111.1 1642.9 3223 1531 3223 1596.1 3111.1 1708Z" fill="#25211E" fill-rule="evenodd"/><path d="M2694 1642.9 2805.9 1531 3223 1531 3111.1 1642.9Z" fill="#575350" fill-rule="evenodd"/><rect x="2694" y="1576.9" width="417.098" height="65.097" fill="#222C67"/><path d="M3111.1 1576.9 3223 1465 3223 1530.1 3111.1 1642Z" fill="#1B2353" fill-rule="evenodd"/><path d="M2694 1576.9 2805.9 1465 3223 1465 3111.1 1576.9Z" fill="#4D5585" fill-rule="evenodd"/><rect x="2694" y="1509.9" width="417.098" height="65.0972" fill="#003E5D"/><path d="M3111.1 1509.9 3223 1398 3223 1463.1 3111.1 1575Z" fill="#00324B" fill-rule="evenodd"/><path d="M2694 1509.9 2805.9 1398 3223 1398 3111.1 1509.9Z" fill="#32647D" fill-rule="evenodd"/><rect x="2694" y="1450.9" width="417.098" height="65.097" fill="#007CBA"/><path d="M3111.1 1450.9 3223 1339 3223 1404.1 3111.1 1516Z" fill="#006496" fill-rule="evenodd"/><path d="M2694 1450.9 2805.9 1339 3223 1339 3111.1 1450.9Z" fill="#3296C8" fill-rule="evenodd"/><rect x="2693" y="1384.9" width="417.098" height="65.097" fill="#E5B611"/><path d="M3110.1 1384.9 3222 1273 3222 1338.1 3110.1 1450Z" fill="#B8920E" fill-rule="evenodd"/><path d="M2693 1384.9 2804.9 1273 3222 1273 3110.1 1384.9Z" fill="#EAC440" fill-rule="evenodd"/><g clip-path="url(#clip2)"><g filter="url(#fx0)" transform="translate(2739 1405)"><g><rect x="17.5" y="17.8005" width="282" height="243" stroke="#007BBA" stroke-width="3" stroke-linejoin="round" stroke-miterlimit="10" fill="#D9D9D9"/></g></g></g><rect x="2756.5" y="1414.5" width="282" height="243" stroke="#007BBA" stroke-width="3.4375" stroke-linejoin="round" stroke-miterlimit="10" fill="#D9D9D9"/><rect x="3604.5" y="923.5" width="575" height="482" stroke="#007BBA" stroke-width="3.4375" stroke-linejoin="round" stroke-miterlimit="10" fill="#BEE9FF"/><rect x="3631" y="1320.27" width="417.729" height="64.7299" fill="#2E2925"/><path d="M4048.73 1320.27 4160 1209 4160 1273.73 4048.73 1385Z" fill="#25211E" fill-rule="evenodd"/><path d="M3631 1320.27 3742.27 1209 4160 1209 4048.73 1320.27Z" fill="#575350" fill-rule="evenodd"/><rect x="3631" y="1253.9" width="417.098" height="65.097" fill="#222C67"/><path d="M4048.1 1253.9 4160 1142 4160 1207.1 4048.1 1319Z" fill="#1B2353" fill-rule="evenodd"/><path d="M3631 1253.9 3742.9 1142 4160 1142 4048.1 1253.9Z" fill="#4D5585" fill-rule="evenodd"/><rect x="3631" y="1186.9" width="417.098" height="65.097" fill="#003E5D"/><path d="M4048.1 1186.9 4160 1075 4160 1140.1 4048.1 1252Z" fill="#00324B" fill-rule="evenodd"/><path d="M3631 1186.9 3742.9 1075 4160 1075 4048.1 1186.9Z" fill="#32647D" fill-rule="evenodd"/><rect x="3631" y="1128.9" width="417.098" height="65.0972" fill="#007CBA"/><path d="M4048.1 1128.9 4160 1017 4160 1082.1 4048.1 1194Z" fill="#006496" fill-rule="evenodd"/><path d="M3631 1128.9 3742.9 1017 4160 1017 4048.1 1128.9Z" fill="#3296C8" fill-rule="evenodd"/><rect x="3630" y="1061.9" width="417.098" height="65.097" fill="#E5B611"/><path d="M4047.1 1061.9 4159 950 4159 1015.1 4047.1 1127Z" fill="#B8920E" fill-rule="evenodd"/><path d="M3630 1061.9 3741.9 950 4159 950 4047.1 1061.9Z" fill="#EAC440" fill-rule="evenodd"/><rect x="3524.5" y="849.5" width="575" height="481" stroke="#007BBA" stroke-width="3.4375" stroke-linejoin="round" stroke-miterlimit="10" fill="#BEE9FF"/><rect x="3552" y="1245.9" width="417.098" height="65.0972" fill="#2E2925"/><path d="M3969.1 1245.9 4081 1134 4081 1199.1 3969.1 1311Z" fill="#25211E" fill-rule="evenodd"/><path d="M3552 1245.9 3663.9 1134 4081 1134 3969.1 1245.9Z" fill="#575350" fill-rule="evenodd"/><rect x="3552" y="1179.27" width="417.729" height="64.7299" fill="#222C67"/><path d="M3969.73 1179.27 4081 1068 4081 1132.73 3969.73 1244Z" fill="#1B2353" fill-rule="evenodd"/><path d="M3552 1179.27 3663.27 1068 4081 1068 3969.73 1179.27Z" fill="#4D5585" fill-rule="evenodd"/><rect x="3552" y="1111.9" width="417.098" height="65.097" fill="#003E5D"/><path d="M3969.1 1111.9 4081 1000 4081 1065.1 3969.1 1177Z" fill="#00324B" fill-rule="evenodd"/><path d="M3552 1111.9 3663.9 1000 4081 1000 3969.1 1111.9Z" fill="#32647D" fill-rule="evenodd"/><rect x="3551" y="1053.9" width="417.098" height="65.097" fill="#007CBA"/><path d="M3968.1 1053.9 4080 942 4080 1007.1 3968.1 1119Z" fill="#006496" fill-rule="evenodd"/><path d="M3551 1053.9 3662.9 942 4080 942 3968.1 1053.9Z" fill="#3296C8" fill-rule="evenodd"/><rect x="3551" y="987.27" width="416.73" height="64.7291" fill="#E5B611"/><path d="M3967.73 987.27 4079 876 4079 940.729 3967.73 1052Z" fill="#B8920E" fill-rule="evenodd"/><path d="M3551 987.27 3662.27 876 4079 876 3967.73 987.27Z" fill="#EAC440" fill-rule="evenodd"/><rect x="3444.5" y="762.5" width="575" height="481" stroke="#007BBA" stroke-width="3.4375" stroke-linejoin="round" stroke-miterlimit="10" fill="#BEE9FF"/><rect x="3472" y="1158.9" width="417.098" height="65.097" fill="#2E2925"/><path d="M3889.1 1158.9 4001 1047 4001 1112.1 3889.1 1224Z" fill="#25211E" fill-rule="evenodd"/><path d="M3472 1158.9 3583.9 1047 4001 1047 3889.1 1158.9Z" fill="#575350" fill-rule="evenodd"/><rect x="3472" y="1092.9" width="417.098" height="65.097" fill="#222C67"/><path d="M3889.1 1092.9 4001 981 4001 1046.1 3889.1 1158Z" fill="#1B2353" fill-rule="evenodd"/><path d="M3472 1092.9 3583.9 981 4001 981 3889.1 1092.9Z" fill="#4D5585" fill-rule="evenodd"/><rect x="3472" y="1025.27" width="417.729" height="64.7297" fill="#003E5D"/><path d="M3889.73 1025.27 4001 914 4001 978.73 3889.73 1090Z" fill="#00324B" fill-rule="evenodd"/><path d="M3472 1025.27 3583.27 914 4001 914 3889.73 1025.27Z" fill="#32647D" fill-rule="evenodd"/><rect x="3471" y="966.902" width="417.098" height="65.097" fill="#007CBA"/><path d="M3888.1 966.902 4000 855 4000 920.097 3888.1 1032Z" fill="#006496" fill-rule="evenodd"/><path d="M3471 966.902 3582.9 855 4000 855 3888.1 966.902Z" fill="#3296C8" fill-rule="evenodd"/><rect x="3471" y="900.903" width="416.097" height="65.097" fill="#E5B611"/><path d="M3887.1 900.903 3999 789 3999 854.097 3887.1 966Z" fill="#B8920E" fill-rule="evenodd"/><path d="M3471 900.903 3582.9 789 3999 789 3887.1 900.903Z" fill="#EAC440" fill-rule="evenodd"/><g clip-path="url(#clip3)"><g filter="url(#fx1)" transform="translate(3517 921)"><g><rect x="17.5" y="17.8005" width="281" height="243" stroke="#007BBA" stroke-width="3" stroke-linejoin="round" stroke-miterlimit="10" fill="#D9D9D9"/></g></g></g><rect x="3534.5" y="930.5" width="281" height="243" stroke="#007BBA" stroke-width="3.4375" stroke-linejoin="round" stroke-miterlimit="10" fill="#D9D9D9"/><text fill="#2E2925" font-family="Arial,Arial_MSFontService,sans-serif" font-weight="400" font-size="92" transform="matrix(1 0 0 1 2841.77 1568)">M</text><text fill="#2E2925" font-family="Arial,Arial_MSFontService,sans-serif" font-weight="400" font-size="61" transform="matrix(1 0 0 1 2917.97 1590)">1</text><text fill="#2E2925" font-family="Arial,Arial_MSFontService,sans-serif" font-weight="400" font-size="92" transform="matrix(1 0 0 1 3625.74 1083)">E</text><text fill="#2E2925" font-family="Arial,Arial_MSFontService,sans-serif" font-weight="400" font-size="61" transform="matrix(1 0 0 1 3687.05 1105)">1</text><path d="M3685.24 1224.5 3685.24 1288.75C3685.24 1291.28 3683.19 1293.33 3680.66 1293.33L3269.42 1293.33 3269.42 1284.16 3680.66 1284.16 3676.07 1288.75 3676.07 1224.5ZM3274 1302.5 3246.5 1288.75 3274 1275Z" fill="#007CBA"/><rect x="2816.5" y="1075.5" width="208" height="77" stroke="#A6A6A6" stroke-width="6.875" stroke-linejoin="round" stroke-miterlimit="10" fill="none"/><path d="M2799.17 1075.5 2799.17 1152.5Z" stroke="#A6A6A6" stroke-width="6.875" stroke-linejoin="round" stroke-miterlimit="10" fill="none" fill-rule="evenodd"/><path d="M2799.17 1089.94 2676.88 1090.6 2729.53 1203.22" stroke="#A6A6A6" stroke-width="6.875" stroke-linejoin="round" stroke-miterlimit="10" fill="none" fill-rule="evenodd"/><text fill="#A6A6A6" font-family="Arial,Arial_MSFontService,sans-serif" font-weight="400" font-size="50" transform="matrix(1 0 0 1 2835.24 1137)">Module</text><rect x="3690.5" y="1481.5" width="349" height="77" stroke="#A6A6A6" stroke-width="6.875" stroke-linejoin="round" stroke-miterlimit="10" fill="none"/><path d="M3661.42 1481.5 3661.42 1558.5Z" stroke="#A6A6A6" stroke-width="6.875" stroke-linejoin="round" stroke-miterlimit="10" fill="none" fill-rule="evenodd"/><path d="M3661.42 1495.94 3540.16 1495.85 3422.17 1317.54" stroke="#A6A6A6" stroke-width="6.875" stroke-linejoin="round" stroke-miterlimit="10" fill="none" fill-rule="evenodd"/><text fill="#A6A6A6" font-family="Arial,Arial_MSFontService,sans-serif" font-weight="400" font-size="50" transform="matrix(1 0 0 1 3711.17 1540)">E</text><text fill="#A6A6A6" font-family="Arial,Arial_MSFontService,sans-serif" font-weight="400" font-size="34" transform="matrix(1 0 0 1 3744.98 1552)">1</text><text fill="#A6A6A6" font-family="Arial,Arial_MSFontService,sans-serif" font-weight="400" font-size="50" transform="matrix(1 0 0 1 3777.63 1540)">extends M</text><text fill="#A6A6A6" font-family="Arial,Arial_MSFontService,sans-serif" font-weight="400" font-size="34" transform="matrix(1 0 0 1 4009.66 1552)">1</text><rect x="3096.5" y="2002.5" width="761" height="76.0004" stroke="#A6A6A6" stroke-width="6.875" stroke-linejoin="round" stroke-miterlimit="10" fill="none"/><path d="M3074.34 2002.5 3074.34 2078.5Z" stroke="#A6A6A6" stroke-width="6.875" stroke-linejoin="round" stroke-miterlimit="10" fill="none" fill-rule="evenodd"/><path d="M3074.34 2016.75 2925.82 2016.66 2853.45 1924.41" stroke="#A6A6A6" stroke-width="6.875" stroke-linejoin="round" stroke-miterlimit="10" fill="none" fill-rule="evenodd"/><text fill="#A6A6A6" font-family="Arial,Arial_MSFontService,sans-serif" font-weight="400" font-size="50" transform="matrix(1 0 0 1 3116.69 2060)">Version Modules: M</text><text fill="#A6A6A6" font-family="Arial,Arial_MSFontService,sans-serif" font-weight="400" font-size="34" transform="matrix(1 0 0 1 3561.85 2072)">1</text><text fill="#A6A6A6" font-family="Arial,Arial_MSFontService,sans-serif" font-weight="400" font-size="50" transform="matrix(1 0 0 1 3580.75 2060)">, M</text><text fill="#A6A6A6" font-family="Arial,Arial_MSFontService,sans-serif" font-weight="400" font-size="34" transform="matrix(1 0 0 1 3650.07 2072)">2</text><text fill="#A6A6A6" font-family="Arial,Arial_MSFontService,sans-serif" font-weight="400" font-size="50" transform="matrix(1 0 0 1 3668.98 2060)">, M</text><text fill="#A6A6A6" font-family="Arial,Arial_MSFontService,sans-serif" font-weight="400" font-size="34" transform="matrix(1 0 0 1 3738.3 2072)">1</text><text fill="#A6A6A6" font-family="Arial,Arial_MSFontService,sans-serif" font-weight="400" font-size="50" transform="matrix(1 0 0 1 3757.21 2060)">, …</text><rect x="3688.5" y="631.5" width="451" height="75.9999" stroke="#A6A6A6" stroke-width="6.875" stroke-linejoin="round" stroke-miterlimit="10" fill="none"/><path d="M3666.4 631.5 3666.4 707.5Z" stroke="#A6A6A6" stroke-width="6.875" stroke-linejoin="round" stroke-miterlimit="10" fill="none" fill-rule="evenodd"/><path d="M3666.4 645.75 3583.48 646.259 3545.48 725.998" stroke="#A6A6A6" stroke-width="6.875" stroke-linejoin="round" stroke-miterlimit="10" fill="none" fill-rule="evenodd"/><text fill="#A6A6A6" font-family="Arial,Arial_MSFontService,sans-serif" font-weight="400" font-size="50" transform="matrix(1 0 0 1 3720.89 689)">Exte</text><text fill="#A6A6A6" font-family="Arial,Arial_MSFontService,sans-serif" font-weight="400" font-size="50" transform="matrix(1 0 0 1 3821.72 689)">n</text><text fill="#A6A6A6" font-family="Arial,Arial_MSFontService,sans-serif" font-weight="400" font-size="50" transform="matrix(1 0 0 1 3849.8 689)">sion Module</text><text fill="#2E2925" font-family="Arial,Arial_MSFontService,sans-serif" font-weight="700" font-size="83" transform="matrix(1 0 0 1 517.105 509)">Architectural Separation of Concerns</text></g></svg>