<svg width="4008" height="1924" xmlns="http://www.w3.org/2000/svg" xmlns:xlink="http://www.w3.org/1999/xlink" xml:space="preserve" overflow="hidden"><defs><clipPath id="clip0"><rect x="196" y="335" width="4008" height="1924"/></clipPath></defs><g clip-path="url(#clip0)" transform="translate(-196 -335)"><rect x="196" y="2027" width="4008" height="232" fill="#F2F2F2"/><text font-family="Arial,Arial_MSFontService,sans-serif" font-weight="700" font-size="64" transform="matrix(1 0 0 1 323.698 2128)">Objectives provide a line</text><text font-family="Arial,Arial_MSFontService,sans-serif" font-weight="700" font-size="64" transform="matrix(1 0 0 1 1076.51 2128)">-</text><text font-family="Arial,Arial_MSFontService,sans-serif" font-weight="700" font-size="64" transform="matrix(1 0 0 1 1097.71 2128)">of</text><text font-family="Arial,Arial_MSFontService,sans-serif" font-weight="700" font-size="64" transform="matrix(1 0 0 1 1157.86 2128)">-</text><text font-family="Arial,Arial_MSFontService,sans-serif" font-weight="700" font-size="64" transform="matrix(1 0 0 1 1179.06 2128)">sight to an ideal state. Through a standardized terminology architecture, healthcare data will be </text><text font-family="Arial,Arial_MSFontService,sans-serif" font-weight="700" font-size="64" transform="matrix(1 0 0 1 1299.38 2205)">stored and shared more consistently across the enterprise. </text><text font-family="Arial,Arial_MSFontService,sans-serif" font-weight="700" font-size="73" transform="matrix(1 0 0 1 2838.64 1211)">HL7 FHIR, CIMI, …</text><text font-family="Arial,Arial_MSFontService,sans-serif" font-weight="700" font-size="73" transform="matrix(1 0 0 1 2838.64 817)">Decision support and analytics</text><text font-family="Arial,Arial_MSFontService,sans-serif" font-weight="700" font-size="73" transform="matrix(1 0 0 1 2838.96 1478)">SNOMED, LOINC</text><text font-family="Arial,Arial_MSFontService,sans-serif" font-style="italic" font-weight="400" font-size="49" transform="matrix(1 0 0 1 3429.63 1456)">®</text><text font-family="Arial,Arial_MSFontService,sans-serif" font-weight="700" font-size="73" transform="matrix(1 0 0 1 3465.73 1478)">, </text><text font-family="Arial,Arial_MSFontService,sans-serif" font-weight="700" font-size="73" transform="matrix(1 0 0 1 3506.98 1478)">RxNorm</text><text font-family="Arial,Arial_MSFontService,sans-serif" font-weight="700" font-size="73" transform="matrix(1 0 0 1 3791.72 1478)">, …</text><text fill="#7F7F7F" font-family="Arial,Arial_MSFontService,sans-serif" font-weight="400" font-size="55" transform="matrix(1 0 0 1 2906.79 1546)">Define what can be measured (Description </text><text fill="#7F7F7F" font-family="Arial,Arial_MSFontService,sans-serif" font-weight="400" font-size="55" transform="matrix(1 0 0 1 2906.79 1612)">Logic and Language)</text><text fill="#7F7F7F" font-family="Arial,Arial_MSFontService,sans-serif" font-weight="400" font-size="55" transform="matrix(1 0 0 1 2904.94 1274)">Define how to record a measurement (Numerical </text><text fill="#7F7F7F" font-family="Arial,Arial_MSFontService,sans-serif" font-weight="400" font-size="55" transform="matrix(1 0 0 1 2904.94 1340)">and subject of information)</text><text font-family="Arial,Arial_MSFontService,sans-serif" font-weight="700" font-size="73" transform="matrix(1 0 0 1 2838.96 1734)">Shared format for terminology</text><text fill="#7F7F7F" font-family="Arial,Arial_MSFontService,sans-serif" font-weight="400" font-size="55" transform="matrix(1 0 0 1 2906.79 1806)">Provides the interoperability foundation</text><text fill="#7F7F7F" font-family="Arial,Arial_MSFontService,sans-serif" font-weight="400" font-size="55" transform="matrix(1 0 0 1 2906.79 894)">Define how to process measurements (Decision </text><text fill="#7F7F7F" font-family="Arial,Arial_MSFontService,sans-serif" font-weight="400" font-size="55" transform="matrix(1 0 0 1 2906.79 960)">support, analytics…)</text><text fill="#003E5D" font-family="Arial,Arial_MSFontService,sans-serif" font-weight="700" font-size="64" transform="matrix(1 0 0 1 1869.57 1464)">Terminology Knowledge</text><text fill="#111634" font-family="Arial,Arial_MSFontService,sans-serif" font-weight="700" font-size="64" transform="matrix(1 0 0 1 1814.58 1719)">Foundational Architecture</text><text fill="#2E2824" font-family="Arial,Arial_MSFontService,sans-serif" font-weight="700" font-size="64" transform="matrix(1 0 0 1 2095.65 1209)">Statement Model </text><text fill="#006496" font-family="Arial,Arial_MSFontService,sans-serif" font-weight="700" font-size="64" transform="matrix(1 0 0 1 1900.32 959)">Assertional Knowledge</text><text fill="#E5B611" font-family="Arial,Arial_MSFontService,sans-serif" font-weight="700" font-size="64" transform="matrix(1 0 0 1 1914.03 709)">Procedural Knowledge</text><text fill="#2E2925" font-family="Arial,Arial_MSFontService,sans-serif" font-style="italic" font-weight="400" font-size="50" transform="matrix(1 0 0 1 279.196 749)">How can clinical </text><text fill="#2E2925" font-family="Arial,Arial_MSFontService,sans-serif" font-style="italic" font-weight="400" font-size="50" transform="matrix(1 0 0 1 279.196 810)">decisions be </text><text fill="#2E2925" font-family="Arial,Arial_MSFontService,sans-serif" font-style="italic" font-weight="400" font-size="50" transform="matrix(1 0 0 1 279.196 870)">performed?</text><text fill="#2E2925" font-family="Arial,Arial_MSFontService,sans-serif" font-style="italic" font-weight="400" font-size="50" transform="matrix(1 0 0 1 275.188 1043)">How is this related to </text><text fill="#2E2925" font-family="Arial,Arial_MSFontService,sans-serif" font-style="italic" font-weight="400" font-size="50" transform="matrix(1 0 0 1 275.188 1104)">other clinical </text><text fill="#2E2925" font-family="Arial,Arial_MSFontService,sans-serif" font-style="italic" font-weight="400" font-size="50" transform="matrix(1 0 0 1 275.188 1164)">concepts?</text><text fill="#2E2925" font-family="Arial,Arial_MSFontService,sans-serif" font-style="italic" font-weight="400" font-size="50" transform="matrix(1 0 0 1 282.218 1310)">What was the </text><text fill="#2E2925" font-family="Arial,Arial_MSFontService,sans-serif" font-style="italic" font-weight="400" font-size="50" transform="matrix(1 0 0 1 282.218 1371)">clinical </text><text fill="#2E2925" font-family="Arial,Arial_MSFontService,sans-serif" font-style="italic" font-weight="400" font-size="50" transform="matrix(1 0 0 1 282.218 1431)">phenomenon?</text><text fill="#2E2925" font-family="Arial,Arial_MSFontService,sans-serif" font-style="italic" font-weight="400" font-size="50" transform="matrix(1 0 0 1 263.983 1582)">What are the terms </text><text fill="#2E2925" font-family="Arial,Arial_MSFontService,sans-serif" font-style="italic" font-weight="400" font-size="50" transform="matrix(1 0 0 1 263.983 1643)">and codes used to </text><text fill="#2E2925" font-family="Arial,Arial_MSFontService,sans-serif" font-style="italic" font-weight="400" font-size="50" transform="matrix(1 0 0 1 263.983 1703)">describe a concept?</text><text fill="#2E2925" font-family="Arial,Arial_MSFontService,sans-serif" font-style="italic" font-weight="400" font-size="50" transform="matrix(1 0 0 1 259.253 1883)">How do we build </text><text fill="#2E2925" font-family="Arial,Arial_MSFontService,sans-serif" font-style="italic" font-weight="400" font-size="50" transform="matrix(1 0 0 1 259.253 1944)">and manage it?</text><rect x="821" y="1844.21" width="559.793" height="118.793" fill="#2E2925"/><path d="M1380.79 1844.21 1585 1640 1585 1758.79 1380.79 1963Z" fill="#25211E" fill-rule="evenodd"/><path d="M821 1844.21 1025.21 1640 1585 1640 1380.79 1844.21Z" fill="#575350" fill-rule="evenodd"/><text fill="#FFFFFF" font-family="Arial,Arial_MSFontService,sans-serif" font-weight="700" font-size="92" transform="matrix(1 0 0 1 1097.12 1938)">F</text><rect x="830" y="1589.21" width="559.793" height="118.793" fill="#222C67"/><path d="M1389.79 1589.21 1594 1385 1594 1503.79 1389.79 1708Z" fill="#1B2353" fill-rule="evenodd"/><path d="M830 1589.21 1034.21 1385 1594 1385 1389.79 1589.21Z" fill="#4D5585" fill-rule="evenodd"/><text fill="#FFFFFF" font-family="Arial,Arial_MSFontService,sans-serif" font-weight="700" font-size="92" transform="matrix(1 0 0 1 1097.12 1685)">T</text><rect x="830" y="1330.84" width="559.16" height="119.16" fill="#003E5D"/><path d="M1389.16 1330.84 1594 1126 1594 1245.16 1389.16 1450Z" fill="#00324B" fill-rule="evenodd"/><path d="M830 1330.84 1034.84 1126 1594 1126 1389.16 1330.84Z" fill="#32647D" fill-rule="evenodd"/><text fill="#FFFFFF" font-family="Arial,Arial_MSFontService,sans-serif" font-weight="700" font-size="92" transform="matrix(1 0 0 1 1094.54 1430)">S</text><path d="M2655.5 1392.5C2669.31 1392.5 2680.5 1394.37 2680.5 1396.67L2680.5 1441.44C2680.5 1443.74 2691.69 1445.61 2705.5 1445.61 2691.69 1445.61 2680.5 1447.47 2680.5 1449.77L2680.5 1502.33C2680.5 1504.63 2669.31 1506.5 2655.5 1506.5" stroke="#A0A0A3" stroke-width="9.16667" stroke-linejoin="round" stroke-miterlimit="10" fill="none" fill-rule="evenodd"/><path d="M2654.5 629.5C2668.86 629.5 2680.5 631.44 2680.5 633.833L2680.5 785.595C2680.5 787.989 2692.14 789.929 2706.5 789.929 2692.14 789.929 2680.5 791.869 2680.5 794.262L2680.5 991.167C2680.5 993.56 2668.86 995.5 2654.5 995.5" stroke="#A0A0A3" stroke-width="9.16667" stroke-linejoin="round" stroke-miterlimit="10" fill="none" fill-rule="evenodd"/><path d="M2655.5 1131.5C2669.31 1131.5 2680.5 1133.37 2680.5 1135.67L2680.5 1184.72C2680.5 1187.02 2691.69 1188.89 2705.5 1188.89 2691.69 1188.89 2680.5 1190.76 2680.5 1193.06L2680.5 1241.33C2680.5 1243.63 2669.31 1245.5 2655.5 1245.5" stroke="#A0A0A3" stroke-width="9.16667" stroke-linejoin="round" stroke-miterlimit="10" fill="none" fill-rule="evenodd"/><path d="M2655.5 1644.5C2669.31 1644.5 2680.5 1646.37 2680.5 1648.67L2680.5 1693.44C2680.5 1695.74 2691.69 1697.61 2705.5 1697.61 2691.69 1697.61 2680.5 1699.47 2680.5 1701.77L2680.5 1754.33C2680.5 1756.63 2669.31 1758.5 2655.5 1758.5" stroke="#A0A0A3" stroke-width="9.16667" stroke-linejoin="round" stroke-miterlimit="10" fill="none" fill-rule="evenodd"/><rect x="830" y="1081.21" width="559.793" height="118.793" fill="#007CBA"/><path d="M1389.79 1081.21 1594 877 1594 995.793 1389.79 1200Z" fill="#006496" fill-rule="evenodd"/><path d="M830 1081.21 1034.21 877 1594 877 1389.79 1081.21Z" fill="#3296C8" fill-rule="evenodd"/><text fill="#FFFFFF" font-family="Arial,Arial_MSFontService,sans-serif" font-weight="700" font-size="92" transform="matrix(1 0 0 1 1091.96 1171)">A</text><rect x="821" y="825.208" width="559.793" height="118.793" fill="#E5B611"/><path d="M1380.79 825.208 1585 621 1585 739.793 1380.79 944.001Z" fill="#B8920E" fill-rule="evenodd"/><path d="M821 825.208 1025.21 621 1585 621 1380.79 825.208Z" fill="#EAC440" fill-rule="evenodd"/><text fill="#FFFFFF" font-family="Arial,Arial_MSFontService,sans-serif" font-weight="700" font-size="92" transform="matrix(1 0 0 1 1094.54 922)">P</text><path d="M1585.5 680.5 1858.46 680.5" stroke="#E5B611" stroke-width="3.4375" stroke-linejoin="round" stroke-miterlimit="10" fill="none" fill-rule="evenodd"/><path d="M1594.5 937.5 1822.71 937.5" stroke="#007CBA" stroke-width="3.4375" stroke-linejoin="round" stroke-miterlimit="10" fill="none" fill-rule="evenodd"/><path d="M1594.5 1186.5 2036.75 1186.5" stroke="#222C67" stroke-width="3.4375" stroke-linejoin="round" stroke-miterlimit="10" fill="none" fill-rule="evenodd"/><path d="M1594.5 1444.5 1822.71 1444.5" stroke="#003E5D" stroke-width="3.4375" stroke-linejoin="round" stroke-miterlimit="10" fill="none" fill-rule="evenodd"/><path d="M1585.5 1699.5 1756.62 1699.5" stroke="#111634" stroke-width="3.4375" stroke-linejoin="round" stroke-miterlimit="10" fill="none" fill-rule="evenodd"/><text fill="#2E2925" font-family="Arial,Arial_MSFontService,sans-serif" font-weight="400" font-size="64" transform="matrix(1 0 0 1 245.325 417)">Each architectural layer addresses separate concerns that can be reused, developed, and updated independently. A Knowledge </text><text fill="#2E2925" font-family="Arial,Arial_MSFontService,sans-serif" font-weight="400" font-size="64" transform="matrix(1 0 0 1 245.325 494)">Architecture can individually resolve issues in the data within their layers vs a whole system, leading to much more agile im</text><text fill="#2E2925" font-family="Arial,Arial_MSFontService,sans-serif" font-weight="400" font-size="64" transform="matrix(1 0 0 1 3720.06 494)">pro</text><text fill="#2E2925" font-family="Arial,Arial_MSFontService,sans-serif" font-weight="400" font-size="64" transform="matrix(1 0 0 1 3812.3 494)">vement.</text></g></svg>