<svg width="1796" height="1127" xmlns="http://www.w3.org/2000/svg" xmlns:xlink="http://www.w3.org/1999/xlink" xml:space="preserve" overflow="hidden"><defs><linearGradient x1="2086.01" y1="796.445" x2="1214.05" y2="795.227" gradientUnits="userSpaceOnUse" spreadMethod="reflect" id="fill0"><stop offset="0" stop-color="#C3BDCA"/><stop offset="0.46" stop-color="#A8C7FE"/><stop offset="0.92" stop-color="#A3B8EF"/><stop offset="1" stop-color="#A3B8EF"/></linearGradient><linearGradient x1="1267.41" y1="1176.91" x2="757.905" y2="1176.2" gradientUnits="userSpaceOnUse" spreadMethod="reflect" id="fill1"><stop offset="0" stop-color="#9FACE2"/><stop offset="0.47" stop-color="#9A9BD1"/><stop offset="0.92" stop-color="#9281B7"/><stop offset="1" stop-color="#9281B7"/></linearGradient><linearGradient x1="2542.09" y1="1178.69" x2="2031.55" y2="1177.98" gradientUnits="userSpaceOnUse" spreadMethod="reflect" id="fill2"><stop offset="0" stop-color="#FFC99A"/><stop offset="0.46" stop-color="#F9A65D"/><stop offset="0.92" stop-color="#D2B6AB"/><stop offset="1" stop-color="#D2B6AB"/></linearGradient></defs><g transform="translate(-753 -674)"><path d="M1650.72 674.674C1492.46 674.453 1343.46 715.492 1214.06 787.493L1288.35 916.494C1396.01 856.836 1519.15 822.979 1650.51 823.163 1781.87 823.346 1904.91 857.547 2011.37 917.504L2086.02 788.711C1956.83 716.348 1808.97 674.895 1650.72 674.674Z" fill="url(#fill0)" fill-rule="evenodd"/><path d="M1649.81 1311.53C1514.44 1311.34 1404.74 1420.73 1404.55 1556.11 1404.37 1690.45 1513.75 1800.14 1649.13 1800.33 1783.47 1800.51 1893.16 1691.13 1893.35 1556.79 1893.54 1421.41 1784.15 1311.72 1649.81 1311.53Z" fill="#CCD4DE" fill-rule="evenodd" fill-opacity="0.596078"/><path d="M1501.22 1333.46 1279.51 948.573C1072.59 1072.34 932.727 1296.49 928.233 1553.9L1381 1554.53C1382.16 1462.52 1428.79 1380.92 1501.22 1333.46Z" fill="#B4B0D8" fill-rule="evenodd"/><path d="M1649.85 1287.8C1696.39 1287.87 1739.8 1300.33 1778.03 1321.05L1999.85 936.962C1896.53 879.985 1777.66 846.752 1650.47 846.575 1523.28 846.397 1403.29 879.296 1299.8 937.018L1520.55 1320.69C1558.84 1300.08 1603.32 1287.74 1649.85 1287.8Z" fill="#A5A5A5" fill-rule="evenodd" fill-opacity="0.470588"/><path d="M1916.92 1555.28 2369.68 1555.91C2366.94 1298.49 2226.67 1073.96 2020.1 948.575L1798.35 1333.88C1869.61 1381.53 1917.05 1463.27 1916.92 1555.28Z" fill="#F8CBAD" fill-rule="evenodd"/><path d="M905.166 1553.87C910.704 1288.1 1054.68 1056.65 1267.76 928.71L1193.53 799.336C935.976 953.067 761.96 1233.08 757.378 1553.67Z" fill="url(#fill1)" fill-rule="evenodd"/><path d="M2392.75 1555.95 2541.57 1556.16C2537.88 1235.56 2364.65 955.063 2106.49 800.612L2031.9 929.778C2245.65 1058.31 2388.98 1290.17 2392.75 1555.95Z" fill="url(#fill2)" fill-rule="evenodd"/><text fill="#44546A" font-family="Calibri,Calibri_MSFontService,sans-serif" font-weight="700" font-size="64" transform="matrix(1 0 0 1 1566.21 1498)">Tinkar</text><text fill="#44546A" font-family="Calibri,Calibri_MSFontService,sans-serif" font-weight="700" font-size="64" transform="matrix(1 0 0 1 1558.56 1575)">Logical</text><text fill="#44546A" font-family="Calibri,Calibri_MSFontService,sans-serif" font-weight="700" font-size="64" transform="matrix(1 0 0 1 1570.13 1652)">Model</text><text fill="#E7E6E6" font-family="Calibri,Calibri_MSFontService,sans-serif" font-weight="700" font-size="83" transform="matrix(0.500248 -0.865882 0.865882 0.500248 879.131 1308)">Concept </text><text fill="#E7E6E6" font-family="Calibri,Calibri_MSFontService,sans-serif" font-weight="700" font-size="83" transform="matrix(1 0 0 1 1488.74 779)">Patterns </text><text fill="#E7E6E6" font-family="Calibri,Calibri_MSFontService,sans-serif" font-weight="700" font-size="83" transform="matrix(0.467606 0.883937 -0.883937 0.467606 2257.27 1051)">Semantics </text><text font-family="Calibri,Calibri_MSFontService,sans-serif" font-weight="700" font-size="55" transform="matrix(1 0 0 1 1569.44 1021)">Define </text><text font-family="Calibri,Calibri_MSFontService,sans-serif" font-weight="700" font-size="55" transform="matrix(1 0 0 1 1521.98 1087)">Associated </text><text font-family="Calibri,Calibri_MSFontService,sans-serif" font-weight="700" font-size="55" transform="matrix(1 0 0 1 1507.88 1153)">Information</text><text font-family="Calibri,Calibri_MSFontService,sans-serif" font-weight="700" font-size="55" transform="matrix(0.559765 -0.828651 0.828651 0.559765 1097.42 1396)">Defines an </text><text font-family="Calibri,Calibri_MSFontService,sans-serif" font-weight="700" font-size="55" transform="matrix(0.559765 -0.828651 0.828651 0.559765 1191.93 1374)">Idea</text><text font-family="Calibri,Calibri_MSFontService,sans-serif" font-weight="700" font-size="55" transform="matrix(0.499245 0.866461 -0.866461 0.499245 2061.31 1177)">Define Data </text><text font-family="Calibri,Calibri_MSFontService,sans-serif" font-weight="700" font-size="55" transform="matrix(0.499245 0.866461 -0.866461 0.499245 2004.89 1211)">Elements in </text><text font-family="Calibri,Calibri_MSFontService,sans-serif" font-weight="700" font-size="55" transform="matrix(0.499245 0.866461 -0.866461 0.499245 1942.03 1234)">each pattern </text></g></svg>